<svg xmlns="http://www.w3.org/2000/svg" viewBox="0 0 390 844" role="img" aria-label="Lumin Pomodoro statistics screen">
  <rect width="390" height="844" rx="44" fill="#16141f"/>
  <text x="40" y="100" font-family="monospace" font-size="13" letter-spacing="3" fill="#a39daf">THIS WEEK</text>
  <text x="40" y="150" font-family="monospace" font-size="40" fill="#f4efe4">23h 15m</text>
  <text x="40" y="180" font-family="monospace" font-size="14" fill="#a39daf">focused across 41 sessions</text>
  <g>
    <rect x="48" y="430" width="34" height="150" rx="8" fill="#ff6b35"/>
    <rect x="94" y="380" width="34" height="200" rx="8" fill="#f0529c"/>
    <rect x="140" y="470" width="34" height="110" rx="8" fill="#ffc14d"/>
    <rect x="186" y="330" width="34" height="250" rx="8" fill="#2cc9b5"/>
    <rect x="232" y="410" width="34" height="170" rx="8" fill="#ff6b35"/>
    <rect x="278" y="500" width="34" height="80" rx="8" fill="#332f40"/>
    <rect x="324" y="520" width="34" height="60" rx="8" fill="#332f40"/>
  </g>
  <line x1="40" y1="580" x2="358" y2="580" stroke="#332f40" stroke-width="2"/>
  <text x="48" y="610" font-family="monospace" font-size="12" fill="#a39daf">M</text>
  <text x="94" y="610" font-family="monospace" font-size="12" fill="#a39daf">T</text>
  <text x="140" y="610" font-family="monospace" font-size="12" fill="#a39daf">W</text>
  <text x="186" y="610" font-family="monospace" font-size="12" fill="#a39daf">T</text>
  <text x="232" y="610" font-family="monospace" font-size="12" fill="#a39daf">F</text>
  <text x="278" y="610" font-family="monospace" font-size="12" fill="#a39daf">S</text>
  <text x="324" y="610" font-family="monospace" font-size="12" fill="#a39daf">S</text>
  <rect x="40" y="660" width="318" height="70" rx="16" fill="#201d2b"/>
  <text x="60" y="702" font-family="monospace" font-size="14" fill="#f4efe4">🔥 12-day streak</text>
</svg>
